<svg xmlns="http://www.w3.org/2000/svg" width="300" height="77.454" viewBox="0 0 300 77.454">
  <g id="FC-logo" transform="translate(0.001)">
    <g id="Group_3046" data-name="Group 3046" transform="translate(111.762)">
      <g id="Group_3044" data-name="Group 3044" transform="translate(0)">
        <path id="Path_1093" data-name="Path 1093" d="M198.15,199.99c-4.432,0-6.678,2.326-6.678,6.912v1.992H187.99v3.748h3.482v21.731h3.862V212.642h5.452v-3.748h-5.452V206.97c0-2.726.94-3.21,2.919-3.21a11.709,11.709,0,0,1,1.442.1l1.224.175V200.31l-.909-.148a12.764,12.764,0,0,0-1.86-.173Z" transform="translate(-187.99 -199.879)" fill="#ff4c00"/>
        <path id="Path_1094" data-name="Path 1094" d="M222.683,211.931a7.171,7.171,0,0,0-5.17,1.922v-1.56H213.67v25.47h3.846V223.05c0-2.714.645-7.269,4.954-7.269a9.612,9.612,0,0,1,1.626.161l1.274.243v-3.943l-1.009-.168a8.907,8.907,0,0,0-1.679-.143Z" transform="translate(-195.292 -203.274)" fill="#ff4c00"/>
        <path id="Path_1095" data-name="Path 1095" d="M245.335,211.9c-5.926,0-9.606,4.593-9.606,11.984v2.48c0,7.28,3.762,11.812,9.82,11.812a8.591,8.591,0,0,0,9.086-7.228l.152-1.208h-3.861l-.143.909a4.791,4.791,0,0,1-5.2,3.739c-3.823,0-6.017-2.928-6.017-8.034v-.075h15.407v-2.34c0-7.544-3.6-12.039-9.636-12.039Zm0,3.793c3.305,0,5.452,2.589,5.731,6.814h-11.46c.284-4.234,2.417-6.824,5.729-6.824Z" transform="translate(-201.92 -203.257)" fill="#ff4c00"/>
        <path id="Path_1096" data-name="Path 1096" d="M280.116,211.9c-5.926,0-9.608,4.593-9.608,11.984v2.48c0,7.28,3.762,11.812,9.82,11.812a8.591,8.591,0,0,0,9.086-7.228l.152-1.208H285.7l-.143.909a4.793,4.793,0,0,1-5.2,3.739c-3.823,0-6.017-2.928-6.017-8.034v-.075h15.391v-2.34c.011-7.544-3.589-12.039-9.617-12.039Zm-5.729,10.619c.282-4.236,2.424-6.814,5.729-6.814s5.452,2.589,5.729,6.814Z" transform="translate(-212.07 -203.257)" fill="#ff4c00"/>
        <path id="Rectangle_683" data-name="Rectangle 683" d="M0,0H3.868V34.5H0Z" transform="translate(84.403)" fill="#ff4c00"/>
        <path id="Path_1097" data-name="Path 1097" d="M331.149,211.924a7.8,7.8,0,0,0-8.561,7.207l-.125,1.186h3.752l.152-.893a4.063,4.063,0,0,1,4.675-3.7,4.173,4.173,0,0,1,4.77,4.652v2.24h-5.656c-5.258,0-8.525,2.9-8.525,7.566a7.7,7.7,0,0,0,8.248,8.018,8.83,8.83,0,0,0,5.976-2.11v1.706h3.823V220.036a7.723,7.723,0,0,0-8.529-8.111ZM330.085,234.4a4.089,4.089,0,0,1-4.509-4.268c0-2.5,1.554-3.773,4.618-3.773h5.613v2.533a5.433,5.433,0,0,1-5.72,5.5Z" transform="translate(-226.979 -203.281)" fill="#ff4c00"/>
        <path id="Path_1098" data-name="Path 1098" d="M367.256,211.9a8.55,8.55,0,0,0-6.081,2.3v-1.917H357.33v25.479h3.846v-15.3c0-3.348,1.8-6.726,5.826-6.726,3.764,0,5.1,3.055,5.1,5.906v16.109h3.862V221.419c0-5.788-3.423-9.517-8.711-9.517Z" transform="translate(-237.394 -203.259)" fill="#ff4c00"/>
        <path id="Path_1099" data-name="Path 1099" d="M407.57,230.222a4.843,4.843,0,0,1-5.27,4.118c-3.862,0-6.081-2.862-6.081-7.852V223.5c0-4.877,2.217-7.787,5.931-7.787a5.172,5.172,0,0,1,5.352,4.5l.141.909h3.732l-.064-1.136a8.734,8.734,0,0,0-9.224-8.091c-5.906,0-9.713,4.448-9.713,11.33v3.407c0,7.114,3.746,11.534,9.767,11.534a8.543,8.543,0,0,0,9.2-7.634l.152-1.208h-3.775Z" transform="translate(-247.886 -203.276)" fill="#ff4c00"/>
        <path id="Path_1100" data-name="Path 1100" d="M445.859,226.263v-2.317c0-7.548-3.6-12.052-9.629-12.052-5.926,0-9.608,4.593-9.608,11.984v2.48c0,7.28,3.762,11.812,9.82,11.812a8.591,8.591,0,0,0,9.086-7.228l.152-1.208h-3.862l-.143.909a4.791,4.791,0,0,1-5.2,3.739c-3.825,0-6.017-2.928-6.017-8.034v-.075Zm-9.629-10.571c3.3,0,5.452,2.589,5.731,6.814H430.5C430.783,218.281,432.932,215.692,436.23,215.692Z" transform="translate(-257.622 -203.265)" fill="#ff4c00"/>
      </g>
      <g id="Group_3045" data-name="Group 3045" transform="translate(26.319 42.517)">
        <path id="Path_1101" data-name="Path 1101" d="M239.957,287.959a4.841,4.841,0,0,1-5.268,4.118c-3.862,0-6.078-2.862-6.078-7.855v-2.976c0-4.877,2.217-7.787,5.931-7.787a5.168,5.168,0,0,1,5.349,4.5l.141.909h3.734l-.066-1.136a8.736,8.736,0,0,0-9.224-8.089c-5.906,0-9.713,4.448-9.713,11.33v3.407c0,7.114,3.746,11.535,9.767,11.535a8.541,8.541,0,0,0,9.195-7.634l.152-1.208h-3.766Z" transform="translate(-224.763 -261.01)" fill="#006b89"/>
        <path id="Path_1102" data-name="Path 1102" d="M268.615,269.637c-5.926,0-9.606,4.593-9.606,11.984v2.469c0,7.282,3.762,11.812,9.82,11.812a8.6,8.6,0,0,0,9.086-7.228l.152-1.208h-3.861l-.143.909a4.791,4.791,0,0,1-5.2,3.739c-3.823,0-6.017-2.928-6.017-8.034V284h15.391v-2.315C278.244,274.141,274.646,269.637,268.615,269.637Zm0,3.793c3.3,0,5.452,2.587,5.729,6.814H262.886C263.17,276.018,265.31,273.43,268.615,273.43Z" transform="translate(-234.87 -261.003)" fill="#006b89"/>
        <path id="Path_1103" data-name="Path 1103" d="M305.138,269.639a8.548,8.548,0,0,0-6.079,2.3v-1.917h-3.846V295.5h3.846V280.2c0-3.348,1.8-6.726,5.826-6.726,3.762,0,5.1,3.055,5.1,5.906v16.109h3.862V279.159c0-5.781-3.416-9.52-8.713-9.52Z" transform="translate(-245.553 -261.005)" fill="#006b89"/>
        <path id="Path_1104" data-name="Path 1104" d="M338.349,289.891c-2.319,0-2.792-.429-2.792-2.555V271.663h5.451v-3.748h-5.451v-5.679H331.7v5.679h-3.48v3.748h3.48v15.314c0,4.77,1.779,6.642,6.34,6.642a12.3,12.3,0,0,0,2.419-.227l.861-.175v-3.691l-1.261.227a10.152,10.152,0,0,1-1.706.139Z" transform="translate(-255.238 -258.895)" fill="#006b89"/>
        <path id="Path_1105" data-name="Path 1105" d="M363.231,269.671a7.171,7.171,0,0,0-5.168,1.922v-1.56h-3.846v25.479h3.846V280.8c0-2.714.643-7.269,4.954-7.269a9.5,9.5,0,0,1,1.624.161l1.274.243v-3.946l-1.008-.166a8.942,8.942,0,0,0-1.676-.152Z" transform="translate(-262.887 -261.014)" fill="#006b89"/>
        <path id="Path_1106" data-name="Path 1106" d="M384.792,269.661a7.807,7.807,0,0,0-8.563,7.205l-.123,1.186h3.755l.152-.893a4.064,4.064,0,0,1,4.675-3.7,4.173,4.173,0,0,1,4.77,4.652v2.24H383.8c-5.258,0-8.525,2.9-8.525,7.566a7.7,7.7,0,0,0,8.248,8.018,8.831,8.831,0,0,0,5.976-2.11v1.7h3.823V277.768a7.723,7.723,0,0,0-8.532-8.107Zm-1.049,22.474a4.089,4.089,0,0,1-4.511-4.268c0-2.5,1.554-3.773,4.616-3.773h5.613v2.533a5.431,5.431,0,0,1-5.717,5.508Z" transform="translate(-269.342 -261.028)" fill="#006b89"/>
        <path id="Rectangle_684" data-name="Rectangle 684" d="M0,0H3.866V34.5H0Z" transform="translate(131.732)" fill="#006b89"/>
      </g>
    </g>
    <g id="Group_3056" data-name="Group 3056" transform="translate(-0.001 0.861)">
      <g id="Arrows" transform="translate(18.694 13.495)">
        <g id="Group_3047" data-name="Group 3047" transform="translate(0 16.902)">
          <path id="Path_1107" data-name="Path 1107" d="M91.433,245.934h.277a.259.259,0,0,0,.041.014,1.472,1.472,0,0,1,.909.454l.568.57,2.162,2.162,1.52,1.52a1.617,1.617,0,0,1,.454.606c.041.12.068.243.1.363v.277a.118.118,0,0,0-.014.032,1.536,1.536,0,0,1-.482.945c-.382.377-.761.759-1.136,1.136l-3.255,3.253a1.511,1.511,0,0,1-.413.279,3.313,3.313,0,0,1-.475.145h-.277a.694.694,0,0,0-.075-.018,1.313,1.313,0,0,1-1.122-1.254,1.551,1.551,0,0,1,.493-1.17c.668-.663,1.331-1.331,2-2l.059-.066H84.952a1.363,1.363,0,0,1-1.274-.852,3.282,3.282,0,0,1-.107-.382v-.277a.324.324,0,0,0,.016-.057,1.363,1.363,0,0,1,1.311-1.174h7.893l-.05-.059c-.638-.641-1.279-1.277-1.915-1.919a2.579,2.579,0,0,1-.363-.427,1.363,1.363,0,0,1,.681-2.031,2.336,2.336,0,0,1,.288-.073Z" transform="translate(-83.571 -245.934)" fill="#ff4c00"/>
        </g>
        <g id="Group_3048" data-name="Group 3048" transform="translate(21.136 16.902)">
          <path id="Path_1108" data-name="Path 1108" d="M119.143,245.934h-.277l-.041.014a1.472,1.472,0,0,0-.909.454l-.568.57-2.162,2.162-1.52,1.52a1.623,1.623,0,0,0-.454.606c-.039.12-.066.243-.1.363v.277a.146.146,0,0,1,.014.032,1.531,1.531,0,0,0,.479.945c.382.377.761.759,1.136,1.136L118,257.266a1.5,1.5,0,0,0,.413.279,3.276,3.276,0,0,0,.475.145h.277a.664.664,0,0,1,.075-.018,1.313,1.313,0,0,0,1.122-1.254,1.551,1.551,0,0,0-.493-1.17c-.668-.663-1.331-1.331-2-2l-.059-.066H125.6a1.363,1.363,0,0,0,1.274-.852,3.284,3.284,0,0,0,.1-.382v-.277a.4.4,0,0,1-.016-.057,1.363,1.363,0,0,0-1.311-1.174h-7.891l.05-.059c.638-.641,1.281-1.277,1.917-1.919a2.617,2.617,0,0,0,.363-.427,1.363,1.363,0,0,0-.681-2.031,1.5,1.5,0,0,0-.27-.073Z" transform="translate(-113.112 -245.934)" fill="#ff4c00"/>
        </g>
        <g id="Group_3049" data-name="Group 3049" transform="translate(11.634 0)">
          <path id="Path_1109" data-name="Path 1109" d="M111.581,235.433v.277a.225.225,0,0,0-.014.041,1.472,1.472,0,0,1-.454.909l-.57.568-2.162,2.162-1.52,1.52a1.619,1.619,0,0,1-.606.454c-.12.039-.243.066-.363.1h-.277a.139.139,0,0,0-.032-.014,1.531,1.531,0,0,1-.945-.479q-.565-.57-1.136-1.136-1.629-1.626-3.253-3.255a1.5,1.5,0,0,1-.279-.413,3.276,3.276,0,0,1-.145-.475v-.277a.7.7,0,0,0,.018-.075,1.313,1.313,0,0,1,1.254-1.122,1.552,1.552,0,0,1,1.17.493c.663.668,1.331,1.331,2,2l.066.057a.263.263,0,0,0,0-.036V223.683a1.363,1.363,0,0,1,.852-1.274,3.232,3.232,0,0,1,.382-.1h.277a.389.389,0,0,0,.057.016,1.363,1.363,0,0,1,1.174,1.311v13.177l.059-.05c.641-.638,1.277-1.281,1.919-1.917a2.6,2.6,0,0,1,.427-.363,1.363,1.363,0,0,1,2.031.681,1.867,1.867,0,0,1,.073.275Z" transform="translate(-99.824 -222.304)" fill="#ff4c00"/>
        </g>
        <g id="Group_3050" data-name="Group 3050" transform="translate(11.634 26.401)">
          <path id="Path_1110" data-name="Path 1110" d="M111.581,265.254v-.277a.2.2,0,0,1-.014-.041,1.472,1.472,0,0,0-.454-.909q-.287-.283-.57-.57l-2.162-2.163-1.52-1.52a1.617,1.617,0,0,0-.606-.454c-.12-.041-.243-.068-.363-.1h-.277a.118.118,0,0,1-.032.014,1.535,1.535,0,0,0-.945.482c-.377.382-.759.761-1.136,1.136q-1.629,1.626-3.253,3.255a1.508,1.508,0,0,0-.279.413,3.3,3.3,0,0,0-.145.475v.277a.7.7,0,0,1,.018.075,1.313,1.313,0,0,0,1.254,1.122,1.553,1.553,0,0,0,1.17-.493c.663-.668,1.331-1.331,2-2l.066-.059a.229.229,0,0,1,0,.036V277a1.363,1.363,0,0,0,.852,1.274,3.092,3.092,0,0,0,.382.107h.277a.319.319,0,0,1,.057-.016,1.363,1.363,0,0,0,1.174-1.311V263.88l.059.05c.641.638,1.277,1.279,1.919,1.917a2.571,2.571,0,0,0,.427.363,1.363,1.363,0,0,0,2.031-.681,1.664,1.664,0,0,0,.073-.275Z" transform="translate(-99.824 -259.221)" fill="#ff4c00"/>
        </g>
      </g>
      <path id="Path_1111" data-name="Path 1111" d="M131.687,283.756a21.519,21.519,0,0,1,.7-5.906,10,10,0,0,1,2.092-3.98,8.107,8.107,0,0,1,3.466-2.256,14.885,14.885,0,0,1,4.827-.711,13.338,13.338,0,0,1,3.725.522,14.788,14.788,0,0,1,3.666,1.679.909.909,0,0,1,.341.388,1.122,1.122,0,0,1,.1.454.827.827,0,0,1-.132.466.4.4,0,0,1-.341.2.908.908,0,0,1-.282-.111,14.056,14.056,0,0,0-3.518-1.59,12.6,12.6,0,0,0-3.562-.534,13.608,13.608,0,0,0-4.493.654,6.98,6.98,0,0,0-3.053,2.044,8.6,8.6,0,0,0-1.738,3.534,24.45,24.45,0,0,0,0,10.29,8.6,8.6,0,0,0,1.738,3.534,6.973,6.973,0,0,0,3.053,2.044,13.583,13.583,0,0,0,4.493.656,12.6,12.6,0,0,0,3.562-.534,14.043,14.043,0,0,0,3.518-1.59.431.431,0,0,1,.266-.089.427.427,0,0,1,.361.2.788.788,0,0,1,.141.466,1.045,1.045,0,0,1-.1.454.888.888,0,0,1-.354.377,15.052,15.052,0,0,1-3.673,1.679,13.259,13.259,0,0,1-3.718.523,14.9,14.9,0,0,1-4.827-.711,8.1,8.1,0,0,1-3.466-2.255,9.98,9.98,0,0,1-2.092-3.977,21.523,21.523,0,0,1-.7-5.924Z" transform="translate(-78.557 -221.977)" fill="#006b89"/>
      <path id="Path_1112" data-name="Path 1112" d="M142.346,297.247a16.036,16.036,0,0,1-5.174-.77,9.193,9.193,0,0,1-3.918-2.555,11.071,11.071,0,0,1-2.326-4.4,26.184,26.184,0,0,1,0-12.4,11.071,11.071,0,0,1,2.326-4.4,9.2,9.2,0,0,1,3.916-2.553,16.028,16.028,0,0,1,5.174-.77,14.466,14.466,0,0,1,4.023.566,15.97,15.97,0,0,1,3.934,1.8,2,2,0,0,1,.756.868,2.185,2.185,0,0,1,.2.89,1.908,1.908,0,0,1-.314,1.061,1.467,1.467,0,0,1-1.236.681,1.641,1.641,0,0,1-.765-.227l-.086-.048a13.049,13.049,0,0,0-3.25-1.479,11.583,11.583,0,0,0-3.26-.491,12.631,12.631,0,0,0-4.139.6,5.879,5.879,0,0,0-2.594,1.731,7.589,7.589,0,0,0-1.51,3.1,23.4,23.4,0,0,0,0,9.767,7.588,7.588,0,0,0,1.511,3.1,5.877,5.877,0,0,0,2.594,1.731,12.6,12.6,0,0,0,4.139.6,11.609,11.609,0,0,0,3.262-.491,12.988,12.988,0,0,0,3.223-1.463,1.54,1.54,0,0,1,2.1.388,1.879,1.879,0,0,1,.336,1.086,2.114,2.114,0,0,1-.2.909,1.947,1.947,0,0,1-.763.838,16.235,16.235,0,0,1-3.939,1.795,14.362,14.362,0,0,1-4.014.541Z" transform="translate(-78.13 -221.55)" fill="#006b89"/>
      <path id="Path_1113" data-name="Path 1113" d="M79.939,207.577a1.59,1.59,0,0,0-1.467-.931H63.318a1.233,1.233,0,0,0-1.045.541,1.481,1.481,0,0,0-.227.788v22.992a5.6,5.6,0,0,0,.141,1.311,1.59,1.59,0,0,0,1.59,1.274,1.563,1.563,0,0,0,1.515-1.245,5.169,5.169,0,0,0,.164-1.386v-9.106h10.93a1.663,1.663,0,0,0,.859-.227,1.635,1.635,0,0,0,.62-.681,2.024,2.024,0,0,0,.2-.94,1.545,1.545,0,0,0-1.011-1.629,3.3,3.3,0,0,0-1.038-.145H65.453v-7.95H78.128a3.066,3.066,0,0,0,1.043-.152,1.547,1.547,0,0,0,.963-1.619,2.124,2.124,0,0,0-.2-.893Z" transform="translate(-58.746 -204.904)" fill="#006b89"/>
      <g id="Group_3055" data-name="Group 3055">
        <path id="Path_1114" data-name="Path 1114" d="M99.2,288.306a33.572,33.572,0,0,1-5.542.454,32.948,32.948,0,0,1-33.011-30.172l-.1-1.07-3.1.277.1,1.068a36.044,36.044,0,0,0,36.116,33.009,36.643,36.643,0,0,0,6.058-.5l1.059-.177-.511-3.053Z" transform="translate(-57.45 -218.178)" fill="#ff4c00"/>
        <path id="Path_1115" data-name="Path 1115" d="M107.614,204.209H106.54v3.112h1.074a33.179,33.179,0,0,1,33.134,33.143v1.074h3.112v-1.074a36.3,36.3,0,0,0-36.246-36.255Z" transform="translate(-71.405 -204.209)" fill="#ff4c00"/>
      </g>
    </g>
  </g>
</svg>
